<svg fill="#006699" xmlns="http://www.w3.org/2000/svg"  viewBox="0 0 128 128" width="128px" height="128px"><path d="M 64 1 C 55.7 1 49 7.7 49 16 L 49 74 C 49 75.7 50.3 77 52 77 C 53.7 77 55 75.7 55 74 L 55 16 C 55 11 59 7 64 7 C 69 7 73 11 73 16 L 73 83.199219 C 73 86.699219 74.299219 90.099219 76.699219 92.699219 L 76.800781 92.800781 C 82.400781 99.200781 82.299609 109.10039 76.599609 115.40039 C 73.299609 119.10039 68.499609 121.1 63.599609 121 C 58.699609 120.9 54.000781 118.59922 50.800781 114.69922 C 45.700781 108.49922 45.700781 99.499219 50.800781 93.199219 C 52.800781 90.799219 55.299219 89.000391 58.199219 87.900391 C 63.499219 86.000391 67 81.099609 67 75.599609 L 67 56 C 67 54.3 65.7 53 64 53 C 62.3 53 61 54.3 61 56 L 61 75.699219 C 61 78.699219 59.099219 81.300781 56.199219 82.300781 C 52.299219 83.700781 48.799219 86.200391 46.199219 89.400391 C 39.299219 97.800391 39.299219 110 46.199219 118.5 C 50.499219 123.7 56.800391 126.8 63.400391 127 L 64 127 C 70.5 127 76.7 124.3 81 119.5 C 88.7 111 88.900781 97.600391 81.300781 88.900391 L 81.199219 88.800781 C 79.799219 87.200781 79 85.199219 79 83.199219 L 79 16 C 79 7.7 72.3 1 64 1 z M 64 33 C 62.3 33 61 34.3 61 36 L 61 41 C 61 42.7 62.3 44 64 44 C 65.7 44 67 42.7 67 41 L 67 36 C 67 34.3 65.7 33 64 33 z M 64 96 A 8 8 0 0 0 64 112 A 8 8 0 0 0 64 96 z"/></svg>