<?xml version="1.0"?><svg fill="#006699" xmlns="http://www.w3.org/2000/svg"  viewBox="0 0 50 50" width="128px" height="128px">    <path d="M 7 4 C 5.346 4 4 5.346 4 7 L 4 43 C 4 44.654 5.346 46 7 46 L 43 46 C 44.654 46 46 44.654 46 43 L 46 7 C 46 5.346 44.654 4 43 4 L 7 4 z M 15 8 C 15.552 8 16 8.448 16 9 C 16 9.552 15.552 10 15 10 C 14.448 10 14 9.552 14 9 C 14 8.448 14.448 8 15 8 z M 19 8 C 19.552 8 20 8.448 20 9 C 20 9.552 19.552 10 19 10 C 18.448 10 18 9.552 18 9 C 18 8.448 18.448 8 19 8 z M 23 8 C 23.552 8 24 8.448 24 9 C 24 9.552 23.552 10 23 10 C 22.448 10 22 9.552 22 9 C 22 8.448 22.448 8 23 8 z M 27 8 C 27.553 8 28 8.448 28 9 C 28 9.552 27.553 10 27 10 C 26.447 10 26 9.552 26 9 C 26 8.448 26.447 8 27 8 z M 31 8 C 31.553 8 32 8.448 32 9 C 32 9.552 31.553 10 31 10 C 30.447 10 30 9.552 30 9 C 30 8.448 30.447 8 31 8 z M 35 8 C 35.553 8 36 8.448 36 9 C 36 9.552 35.553 10 35 10 C 34.447 10 34 9.552 34 9 C 34 8.448 34.447 8 35 8 z M 9 14 C 9.552 14 10 14.448 10 15 C 10 15.552 9.552 16 9 16 C 8.448 16 8 15.552 8 15 C 8 14.448 8.448 14 9 14 z M 41 14 C 41.553 14 42 14.448 42 15 C 42 15.552 41.553 16 41 16 C 40.447 16 40 15.552 40 15 C 40 14.448 40.447 14 41 14 z M 16 15 L 34 15 C 34.553 15 35 15.448 35 16 L 35 34 C 35 34.553 34.553 35 34 35 L 16 35 C 15.448 35 15 34.553 15 34 L 15 16 C 15 15.448 15.448 15 16 15 z M 17 17 L 17 33 L 33 33 L 33 17 L 17 17 z M 9 18 C 9.552 18 10 18.448 10 19 C 10 19.552 9.552 20 9 20 C 8.448 20 8 19.552 8 19 C 8 18.448 8.448 18 9 18 z M 41 18 C 41.553 18 42 18.448 42 19 C 42 19.552 41.553 20 41 20 C 40.447 20 40 19.552 40 19 C 40 18.448 40.447 18 41 18 z M 9 22 C 9.552 22 10 22.448 10 23 C 10 23.552 9.552 24 9 24 C 8.448 24 8 23.552 8 23 C 8 22.448 8.448 22 9 22 z M 41 22 C 41.553 22 42 22.448 42 23 C 42 23.552 41.553 24 41 24 C 40.447 24 40 23.552 40 23 C 40 22.448 40.447 22 41 22 z M 9 26 C 9.552 26 10 26.447 10 27 C 10 27.553 9.552 28 9 28 C 8.448 28 8 27.553 8 27 C 8 26.447 8.448 26 9 26 z M 41 26 C 41.553 26 42 26.447 42 27 C 42 27.553 41.553 28 41 28 C 40.447 28 40 27.553 40 27 C 40 26.447 40.447 26 41 26 z M 9 30 C 9.552 30 10 30.447 10 31 C 10 31.553 9.552 32 9 32 C 8.448 32 8 31.553 8 31 C 8 30.447 8.448 30 9 30 z M 41 30 C 41.553 30 42 30.447 42 31 C 42 31.553 41.553 32 41 32 C 40.447 32 40 31.553 40 31 C 40 30.447 40.447 30 41 30 z M 9 34 C 9.552 34 10 34.447 10 35 C 10 35.553 9.552 36 9 36 C 8.448 36 8 35.553 8 35 C 8 34.447 8.448 34 9 34 z M 41 34 C 41.553 34 42 34.447 42 35 C 42 35.553 41.553 36 41 36 C 40.447 36 40 35.553 40 35 C 40 34.447 40.447 34 41 34 z M 15 40 C 15.552 40 16 40.447 16 41 C 16 41.553 15.552 42 15 42 C 14.448 42 14 41.553 14 41 C 14 40.447 14.448 40 15 40 z M 19 40 C 19.552 40 20 40.447 20 41 C 20 41.553 19.552 42 19 42 C 18.448 42 18 41.553 18 41 C 18 40.447 18.448 40 19 40 z M 23 40 C 23.552 40 24 40.447 24 41 C 24 41.553 23.552 42 23 42 C 22.448 42 22 41.553 22 41 C 22 40.447 22.448 40 23 40 z M 27 40 C 27.553 40 28 40.447 28 41 C 28 41.553 27.553 42 27 42 C 26.447 42 26 41.553 26 41 C 26 40.447 26.447 40 27 40 z M 31 40 C 31.553 40 32 40.447 32 41 C 32 41.553 31.553 42 31 42 C 30.447 42 30 41.553 30 41 C 30 40.447 30.447 40 31 40 z M 35 40 C 35.553 40 36 40.447 36 41 C 36 41.553 35.553 42 35 42 C 34.447 42 34 41.553 34 41 C 34 40.447 34.447 40 35 40 z"/></svg>