<?xml version="1.0" encoding="UTF-8" standalone="no"?>
<svg
   fill="#006699"
   viewBox="0 0 50 50"
   width="128px"
   height="128px"
   version="1.1"
   id="svg58"
   sodipodi:docname="icons8-memory-slot.svg"
   inkscape:version="1.2.2 (b0a8486541, 2022-12-01)"
   xmlns:inkscape="http://www.inkscape.org/namespaces/inkscape"
   xmlns:sodipodi="http://sodipodi.sourceforge.net/DTD/sodipodi-0.dtd"
   xmlns="http://www.w3.org/2000/svg"
   xmlns:svg="http://www.w3.org/2000/svg">
  <defs
     id="defs62" />
  <sodipodi:namedview
     id="namedview60"
     pagecolor="#ffffff"
     bordercolor="#000000"
     borderopacity="0.25"
     inkscape:showpageshadow="2"
     inkscape:pageopacity="0.0"
     inkscape:pagecheckerboard="0"
     inkscape:deskcolor="#d1d1d1"
     showgrid="false"
     inkscape:zoom="1.84375"
     inkscape:cx="64"
     inkscape:cy="64.271186"
     inkscape:window-width="1920"
     inkscape:window-height="1172"
     inkscape:window-x="0"
     inkscape:window-y="0"
     inkscape:window-maximized="1"
     inkscape:current-layer="svg58" />
  <path
     d="M 50,9 C 50,7.898438 49.101562,7 48,7 H 2 C 0.894531,7 0,7.898438 0,9 v 26 c 0,0.554688 0.445312,1 1,1 h 48 c 0.550781,0 1,-0.445312 1,-1 z m -2,28 h -4 v 2 h -2 v -2 h -2 v 2 h -2 v -2 h -2 v 2 h -2 v -2 h -2 v 2 H 30 V 37 H 20 v 2 h -2 v -2 h -2 v 2 h -2 v -2 h -2 v 2 H 10 V 37 H 8 v 2 H 6 V 37 H 2 v 4 c 0,1.105469 0.894531,2 2,2 h 19 c 0.554687,0 1,-0.445312 1,-1 v -2 c 0,-0.550781 0.449219,-1 1,-1 0.550781,0 1,0.449219 1,1 v 2 c 0,0.554688 0.449219,1 1,1 h 19 c 1.101562,0 2,-0.894531 2,-2 z M 45,15 V 28 H 38 V 15 Z M 34,15 V 28 H 27 V 15 Z M 23,15 V 28 H 16 V 15 Z M 12,15 V 28 H 5 V 15 Z"
     id="path56" />
</svg>
