<?xml version="1.0" encoding="UTF-8" standalone="no"?>
<svg
   version="1.1"
   id="Layer_1"
   x="0px"
   y="0px"
   width="100%"
   viewBox="0 0 152 152"
   enable-background="new 0 0 152 152"
   xml:space="preserve"
   sodipodi:docname="mainsail.svg"
   inkscape:version="1.2.2 (b0a8486541, 2022-12-01)"
   xmlns:inkscape="http://www.inkscape.org/namespaces/inkscape"
   xmlns:sodipodi="http://sodipodi.sourceforge.net/DTD/sodipodi-0.dtd"
   xmlns="http://www.w3.org/2000/svg"
   xmlns:svg="http://www.w3.org/2000/svg"><defs
   id="defs13" /><sodipodi:namedview
   id="namedview11"
   pagecolor="#ffffff"
   bordercolor="#000000"
   borderopacity="0.25"
   inkscape:showpageshadow="2"
   inkscape:pageopacity="0.0"
   inkscape:pagecheckerboard="0"
   inkscape:deskcolor="#d1d1d1"
   showgrid="false"
   inkscape:zoom="1.5526316"
   inkscape:cx="76"
   inkscape:cy="76.322034"
   inkscape:window-width="1920"
   inkscape:window-height="1172"
   inkscape:window-x="0"
   inkscape:window-y="0"
   inkscape:window-maximized="1"
   inkscape:current-layer="Layer_1" />

<path
   fill="#D51F26"
   opacity="1.000000"
   stroke="none"
   d=" M1.000000,141.333328   C1.922970,142.235382 2.486192,140.990585 2.770078,140.554855   C19.291836,115.196144 35.700825,89.763786 52.271503,64.437210   C63.742371,46.905174 75.431107,29.515690 87.015007,12.057546   C87.270386,11.672661 87.435707,11.228030 87.973190,10.147593   C91.349777,17.991213 91.124619,25.719004 93.945938,32.625233   C94.866478,34.878563 94.966011,37.514668 96.094429,39.626598   C99.178734,45.399147 97.736931,49.920219 94.125862,55.165997   C83.648407,70.386543 74.072289,86.225403 63.687508,101.512558   C55.043133,114.237709 46.668850,127.127464 38.320492,140.041641   C37.453285,141.383148 36.831451,143.138260 34.336384,143.073105   C23.527195,142.790894 12.710481,142.797058 1.448251,142.849182   C1.000000,142.555557 1.000000,142.111099 1.000000,141.333328  z"
   id="path4" />
<path
   fill="#D51F26"
   opacity="1.000000"
   stroke="none"
   d=" M153.000000,125.600006   C151.667358,124.970200 151.537781,126.322037 151.005844,126.975197   C148.935394,129.517517 146.765762,132.398972 145.730316,135.158386   C142.835480,142.872986 137.344711,143.494766 130.483505,143.093430   C123.366325,142.677094 116.203583,142.890976 109.065544,143.047333   C105.860405,143.117554 105.725113,141.826797 107.154732,139.667847   C114.633842,128.373184 122.127998,117.087845 129.724899,105.872421   C131.090179,103.856842 132.526550,103.172623 134.680222,105.778603   C139.904129,112.099602 146.159088,117.426994 152.748657,122.311195   C153.000000,123.066673 153.000000,124.133339 153.000000,125.600006  z"
   id="path6" />
<path
   fill="#D12026"
   opacity="1.000000"
   stroke="none"
   d=" M119.243805,86.701950   C121.921738,89.454948 121.873619,91.693192 119.849648,94.711540   C110.118866,109.223068 100.506027,123.819740 91.201462,138.606506   C89.019440,142.074158 86.679527,143.158279 82.807480,143.060333   C73.383362,142.821960 63.949150,142.982712 54.100010,142.982712   C55.303379,138.311111 58.054024,135.053894 60.310989,131.846222   C70.644272,117.160324 80.145660,101.933891 90.127312,87.023132   C94.534752,80.439194 99.010231,73.899376 103.318222,67.251022   C104.991615,64.668549 106.194084,64.326569 107.609940,67.348846   C110.766838,74.087570 115.100960,80.126709 119.243805,86.701950  z"
   id="path8" />
</svg>
